solid OpenSCAD_Model
  facet normal 0 0 -1
    outer loop
      vertex -198.481 -61.7837 1
      vertex -209.359 -59.2583 1
      vertex -198.481 -59.2583 1
    endloop
  endfacet
  facet normal 0 0 -1
    outer loop
      vertex -214.265 -61.7837 1
      vertex -209.359 -45.2583 1
      vertex -209.359 -59.2583 1
    endloop
  endfacet
  facet normal -0 0 -1
    outer loop
      vertex -209.359 -45.2583 1
      vertex -214.265 -61.7837 1
      vertex -209.359 -40.2075 1
    endloop
  endfacet
  facet normal -0 0 -1
    outer loop
      vertex -209.359 -40.2075 1
      vertex -214.265 -61.7837 1
      vertex -209.359 -26.2085 1
    endloop
  endfacet
  facet normal 0 0 -1
    outer loop
      vertex -214.265 57.6415 1
      vertex -211.74 30.9419 1
      vertex -211.74 16.9419 1
    endloop
  endfacet
  facet normal 0 0 -1
    outer loop
      vertex -211.74 30.9419 1
      vertex -214.265 57.6415 1
      vertex -211.74 41.1171 1
    endloop
  endfacet
  facet normal 0 0 -1
    outer loop
      vertex -214.265 57.6415 1
      vertex -211.74 16.9419 1
      vertex -214.265 -61.7837 1
    endloop
  endfacet
  facet normal -0 0 -1
    outer loop
      vertex -209.359 -26.2085 1
      vertex -214.265 -61.7837 1
      vertex -211.74 16.9419 1
    endloop
  endfacet
  facet normal 0 0 -1
    outer loop
      vertex -214.265 -61.7837 1
      vertex -209.359 -59.2583 1
      vertex -198.481 -61.7837 1
    endloop
  endfacet
  facet normal 0 0 -1
    outer loop
      vertex -209.359 -45.2583 1
      vertex -198.481 -40.2075 1
      vertex -198.481 -45.2583 1
    endloop
  endfacet
  facet normal -0 0 -1
    outer loop
      vertex -198.481 -40.2075 1
      vertex -209.359 -45.2583 1
      vertex -209.359 -40.2075 1
    endloop
  endfacet
  facet normal 0 0 -1
    outer loop
      vertex -211.74 30.9419 1
      vertex -198.481 41.1171 1
      vertex -198.481 30.9419 1
    endloop
  endfacet
  facet normal -0 0 -1
    outer loop
      vertex -198.481 41.1171 1
      vertex -211.74 30.9419 1
      vertex -211.74 41.1171 1
    endloop
  endfacet
  facet normal 0 0 -1
    outer loop
      vertex -198.481 -26.2085 1
      vertex -204.598 -21.1577 1
      vertex -198.481 -21.1577 1
    endloop
  endfacet
  facet normal 0 0 -1
    outer loop
      vertex -209.359 -26.2085 1
      vertex -204.598 -7.15869 1
      vertex -204.598 -21.1577 1
    endloop
  endfacet
  facet normal 0 0 -1
    outer loop
      vertex -211.74 16.9419 1
      vertex -206.978 -2.10791 1
      vertex -209.359 -26.2085 1
    endloop
  endfacet
  facet normal -0 0 -1
    outer loop
      vertex -204.598 -7.15869 1
      vertex -209.359 -26.2085 1
      vertex -206.978 -2.10791 1
    endloop
  endfacet
  facet normal 0 0 -1
    outer loop
      vertex -209.359 -26.2085 1
      vertex -204.598 -21.1577 1
      vertex -198.481 -26.2085 1
    endloop
  endfacet
  facet normal 0 0 -1
    outer loop
      vertex -204.598 -7.15869 1
      vertex -198.481 -2.10791 1
      vertex -198.481 -7.15869 1
    endloop
  endfacet
  facet normal -0 0 -1
    outer loop
      vertex -198.481 -2.10791 1
      vertex -204.598 -7.15869 1
      vertex -206.978 -2.10791 1
    endloop
  endfacet
  facet normal 0 0 -1
    outer loop
      vertex -206.978 11.8911 1
      vertex -198.481 16.9419 1
      vertex -198.481 11.8911 1
    endloop
  endfacet
  facet normal 0 0 -1
    outer loop
      vertex -206.978 11.8911 1
      vertex -211.74 16.9419 1
      vertex -198.481 16.9419 1
    endloop
  endfacet
  facet normal 0 0 -1
    outer loop
      vertex -206.978 -2.10791 1
      vertex -211.74 16.9419 1
      vertex -206.978 11.8911 1
    endloop
  endfacet
  facet normal 0 0 -1
    outer loop
      vertex -211.74 55.1161 1
      vertex -198.481 57.6415 1
      vertex -198.481 55.1161 1
    endloop
  endfacet
  facet normal 0 0 -1
    outer loop
      vertex -211.74 55.1161 1
      vertex -214.265 57.6415 1
      vertex -198.481 57.6415 1
    endloop
  endfacet
  facet normal 0 0 -1
    outer loop
      vertex -211.74 41.1171 1
      vertex -214.265 57.6415 1
      vertex -211.74 55.1161 1
    endloop
  endfacet
  facet normal 0 0 1
    outer loop
      vertex -198.481 57.6415 2.5
      vertex -211.74 55.1161 2.5
      vertex -198.481 55.1161 2.5
    endloop
  endfacet
  facet normal 0 0 1
    outer loop
      vertex -214.265 57.6415 2.5
      vertex -211.74 41.1171 2.5
      vertex -211.74 55.1161 2.5
    endloop
  endfacet
  facet normal 0 0 1
    outer loop
      vertex -211.74 41.1171 2.5
      vertex -214.265 57.6415 2.5
      vertex -211.74 30.9419 2.5
    endloop
  endfacet
  facet normal 0 0 1
    outer loop
      vertex -211.74 30.9419 2.5
      vertex -214.265 57.6415 2.5
      vertex -211.74 16.9419 2.5
    endloop
  endfacet
  facet normal -0 0 1
    outer loop
      vertex -214.265 57.6415 2.5
      vertex -211.74 55.1161 2.5
      vertex -198.481 57.6415 2.5
    endloop
  endfacet
  facet normal -0 0 1
    outer loop
      vertex -211.74 41.1171 2.5
      vertex -198.481 30.9419 2.5
      vertex -198.481 41.1171 2.5
    endloop
  endfacet
  facet normal 0 0 1
    outer loop
      vertex -198.481 30.9419 2.5
      vertex -211.74 41.1171 2.5
      vertex -211.74 30.9419 2.5
    endloop
  endfacet
  facet normal 0 0 1
    outer loop
      vertex -198.481 16.9419 2.5
      vertex -206.978 11.8911 2.5
      vertex -198.481 11.8911 2.5
    endloop
  endfacet
  facet normal 0 0 1
    outer loop
      vertex -211.74 16.9419 2.5
      vertex -206.978 -2.10791 2.5
      vertex -206.978 11.8911 2.5
    endloop
  endfacet
  facet normal 0 0 1
    outer loop
      vertex -214.265 -61.7837 2.5
      vertex -209.359 -40.2075 2.5
      vertex -209.359 -26.2085 2.5
    endloop
  endfacet
  facet normal 0 0 1
    outer loop
      vertex -209.359 -40.2075 2.5
      vertex -214.265 -61.7837 2.5
      vertex -209.359 -45.2583 2.5
    endloop
  endfacet
  facet normal 0 0 1
    outer loop
      vertex -214.265 -61.7837 2.5
      vertex -209.359 -26.2085 2.5
      vertex -211.74 16.9419 2.5
    endloop
  endfacet
  facet normal 0 0 1
    outer loop
      vertex -206.978 -2.10791 2.5
      vertex -211.74 16.9419 2.5
      vertex -209.359 -26.2085 2.5
    endloop
  endfacet
  facet normal -0 0 1
    outer loop
      vertex -211.74 16.9419 2.5
      vertex -206.978 11.8911 2.5
      vertex -198.481 16.9419 2.5
    endloop
  endfacet
  facet normal -0 0 1
    outer loop
      vertex -209.359 -40.2075 2.5
      vertex -198.481 -45.2583 2.5
      vertex -198.481 -40.2075 2.5
    endloop
  endfacet
  facet normal 0 0 1
    outer loop
      vertex -198.481 -45.2583 2.5
      vertex -209.359 -40.2075 2.5
      vertex -209.359 -45.2583 2.5
    endloop
  endfacet
  facet normal 0 0 1
    outer loop
      vertex -198.481 -2.10791 2.5
      vertex -204.598 -7.15869 2.5
      vertex -198.481 -7.15869 2.5
    endloop
  endfacet
  facet normal 0 0 1
    outer loop
      vertex -209.359 -26.2085 2.5
      vertex -204.598 -7.15869 2.5
      vertex -206.978 -2.10791 2.5
    endloop
  endfacet
  facet normal -0 0 1
    outer loop
      vertex -206.978 -2.10791 2.5
      vertex -204.598 -7.15869 2.5
      vertex -198.481 -2.10791 2.5
    endloop
  endfacet
  facet normal -0 0 1
    outer loop
      vertex -204.598 -21.1577 2.5
      vertex -198.481 -26.2085 2.5
      vertex -198.481 -21.1577 2.5
    endloop
  endfacet
  facet normal 0 0 1
    outer loop
      vertex -204.598 -21.1577 2.5
      vertex -209.359 -26.2085 2.5
      vertex -198.481 -26.2085 2.5
    endloop
  endfacet
  facet normal 0 0 1
    outer loop
      vertex -204.598 -7.15869 2.5
      vertex -209.359 -26.2085 2.5
      vertex -204.598 -21.1577 2.5
    endloop
  endfacet
  facet normal -0 0 1
    outer loop
      vertex -209.359 -59.2583 2.5
      vertex -198.481 -61.7837 2.5
      vertex -198.481 -59.2583 2.5
    endloop
  endfacet
  facet normal 0 0 1
    outer loop
      vertex -214.265 -61.7837 2.5
      vertex -211.74 16.9419 2.5
      vertex -214.265 57.6415 2.5
    endloop
  endfacet
  facet normal 0 0 1
    outer loop
      vertex -209.359 -59.2583 2.5
      vertex -214.265 -61.7837 2.5
      vertex -198.481 -61.7837 2.5
    endloop
  endfacet
  facet normal 0 0 1
    outer loop
      vertex -209.359 -45.2583 2.5
      vertex -214.265 -61.7837 2.5
      vertex -209.359 -59.2583 2.5
    endloop
  endfacet
  facet normal -1 0 0
    outer loop
      vertex -214.265 -61.7837 1
      vertex -214.265 57.6415 2.5
      vertex -214.265 57.6415 1
    endloop
  endfacet
  facet normal -1 -0 0
    outer loop
      vertex -214.265 57.6415 2.5
      vertex -214.265 -61.7837 1
      vertex -214.265 -61.7837 2.5
    endloop
  endfacet
  facet normal 0 -1 0
    outer loop
      vertex -214.265 -61.7837 1
      vertex -198.481 -61.7837 2.5
      vertex -214.265 -61.7837 2.5
    endloop
  endfacet
  facet normal 0 -1 -0
    outer loop
      vertex -198.481 -61.7837 2.5
      vertex -214.265 -61.7837 1
      vertex -198.481 -61.7837 1
    endloop
  endfacet
  facet normal 1 -0 0
    outer loop
      vertex -211.74 16.9419 2.5
      vertex -211.74 30.9419 1
      vertex -211.74 30.9419 2.5
    endloop
  endfacet
  facet normal 1 0 0
    outer loop
      vertex -211.74 30.9419 1
      vertex -211.74 16.9419 2.5
      vertex -211.74 16.9419 1
    endloop
  endfacet
  facet normal 0 -1 0
    outer loop
      vertex -211.74 30.9419 1
      vertex -198.481 30.9419 2.5
      vertex -211.74 30.9419 2.5
    endloop
  endfacet
  facet normal 0 -1 -0
    outer loop
      vertex -198.481 30.9419 2.5
      vertex -211.74 30.9419 1
      vertex -198.481 30.9419 1
    endloop
  endfacet
  facet normal 0 1 -0
    outer loop
      vertex -198.481 16.9419 1
      vertex -211.74 16.9419 2.5
      vertex -198.481 16.9419 2.5
    endloop
  endfacet
  facet normal 0 1 0
    outer loop
      vertex -211.74 16.9419 2.5
      vertex -198.481 16.9419 1
      vertex -211.74 16.9419 1
    endloop
  endfacet
  facet normal 1 -0 0
    outer loop
      vertex -206.978 -2.10791 2.5
      vertex -206.978 11.8911 1
      vertex -206.978 11.8911 2.5
    endloop
  endfacet
  facet normal 1 0 0
    outer loop
      vertex -206.978 11.8911 1
      vertex -206.978 -2.10791 2.5
      vertex -206.978 -2.10791 1
    endloop
  endfacet
  facet normal 0 -1 0
    outer loop
      vertex -206.978 11.8911 1
      vertex -198.481 11.8911 2.5
      vertex -206.978 11.8911 2.5
    endloop
  endfacet
  facet normal 0 -1 -0
    outer loop
      vertex -198.481 11.8911 2.5
      vertex -206.978 11.8911 1
      vertex -198.481 11.8911 1
    endloop
  endfacet
  facet normal 0 1 -0
    outer loop
      vertex -198.481 -2.10791 1
      vertex -206.978 -2.10791 2.5
      vertex -198.481 -2.10791 2.5
    endloop
  endfacet
  facet normal 0 1 0
    outer loop
      vertex -206.978 -2.10791 2.5
      vertex -198.481 -2.10791 1
      vertex -206.978 -2.10791 1
    endloop
  endfacet
  facet normal 1 -0 0
    outer loop
      vertex -204.598 -21.1577 2.5
      vertex -204.598 -7.15869 1
      vertex -204.598 -7.15869 2.5
    endloop
  endfacet
  facet normal 1 0 0
    outer loop
      vertex -204.598 -7.15869 1
      vertex -204.598 -21.1577 2.5
      vertex -204.598 -21.1577 1
    endloop
  endfacet
  facet normal 0 -1 0
    outer loop
      vertex -204.598 -7.15869 1
      vertex -198.481 -7.15869 2.5
      vertex -204.598 -7.15869 2.5
    endloop
  endfacet
  facet normal 0 -1 -0
    outer loop
      vertex -198.481 -7.15869 2.5
      vertex -204.598 -7.15869 1
      vertex -198.481 -7.15869 1
    endloop
  endfacet
  facet normal 0 1 -0
    outer loop
      vertex -198.481 -21.1577 1
      vertex -204.598 -21.1577 2.5
      vertex -198.481 -21.1577 2.5
    endloop
  endfacet
  facet normal 0 1 0
    outer loop
      vertex -204.598 -21.1577 2.5
      vertex -198.481 -21.1577 1
      vertex -204.598 -21.1577 1
    endloop
  endfacet
  facet normal 1 -0 0
    outer loop
      vertex -209.359 -40.2075 2.5
      vertex -209.359 -26.2085 1
      vertex -209.359 -26.2085 2.5
    endloop
  endfacet
  facet normal 1 0 0
    outer loop
      vertex -209.359 -26.2085 1
      vertex -209.359 -40.2075 2.5
      vertex -209.359 -40.2075 1
    endloop
  endfacet
  facet normal 0 -1 0
    outer loop
      vertex -209.359 -26.2085 1
      vertex -198.481 -26.2085 2.5
      vertex -209.359 -26.2085 2.5
    endloop
  endfacet
  facet normal 0 -1 -0
    outer loop
      vertex -198.481 -26.2085 2.5
      vertex -209.359 -26.2085 1
      vertex -198.481 -26.2085 1
    endloop
  endfacet
  facet normal 0 1 -0
    outer loop
      vertex -198.481 -40.2075 1
      vertex -209.359 -40.2075 2.5
      vertex -198.481 -40.2075 2.5
    endloop
  endfacet
  facet normal 0 1 0
    outer loop
      vertex -209.359 -40.2075 2.5
      vertex -198.481 -40.2075 1
      vertex -209.359 -40.2075 1
    endloop
  endfacet
  facet normal 1 -0 0
    outer loop
      vertex -209.359 -59.2583 2.5
      vertex -209.359 -45.2583 1
      vertex -209.359 -45.2583 2.5
    endloop
  endfacet
  facet normal 1 0 0
    outer loop
      vertex -209.359 -45.2583 1
      vertex -209.359 -59.2583 2.5
      vertex -209.359 -59.2583 1
    endloop
  endfacet
  facet normal 0 -1 0
    outer loop
      vertex -209.359 -45.2583 1
      vertex -198.481 -45.2583 2.5
      vertex -209.359 -45.2583 2.5
    endloop
  endfacet
  facet normal 0 -1 -0
    outer loop
      vertex -198.481 -45.2583 2.5
      vertex -209.359 -45.2583 1
      vertex -198.481 -45.2583 1
    endloop
  endfacet
  facet normal 0 1 -0
    outer loop
      vertex -198.481 -59.2583 1
      vertex -209.359 -59.2583 2.5
      vertex -198.481 -59.2583 2.5
    endloop
  endfacet
  facet normal 0 1 0
    outer loop
      vertex -209.359 -59.2583 2.5
      vertex -198.481 -59.2583 1
      vertex -209.359 -59.2583 1
    endloop
  endfacet
  facet normal 0 1 -0
    outer loop
      vertex -198.481 57.6415 1
      vertex -214.265 57.6415 2.5
      vertex -198.481 57.6415 2.5
    endloop
  endfacet
  facet normal 0 1 0
    outer loop
      vertex -214.265 57.6415 2.5
      vertex -198.481 57.6415 1
      vertex -214.265 57.6415 1
    endloop
  endfacet
  facet normal 1 -0 0
    outer loop
      vertex -211.74 41.1171 2.5
      vertex -211.74 55.1161 1
      vertex -211.74 55.1161 2.5
    endloop
  endfacet
  facet normal 1 0 0
    outer loop
      vertex -211.74 55.1161 1
      vertex -211.74 41.1171 2.5
      vertex -211.74 41.1171 1
    endloop
  endfacet
  facet normal 0 -1 0
    outer loop
      vertex -211.74 55.1161 1
      vertex -198.481 55.1161 2.5
      vertex -211.74 55.1161 2.5
    endloop
  endfacet
  facet normal 0 -1 -0
    outer loop
      vertex -198.481 55.1161 2.5
      vertex -211.74 55.1161 1
      vertex -198.481 55.1161 1
    endloop
  endfacet
  facet normal 0 1 -0
    outer loop
      vertex -198.481 41.1171 1
      vertex -211.74 41.1171 2.5
      vertex -198.481 41.1171 2.5
    endloop
  endfacet
  facet normal 0 1 0
    outer loop
      vertex -211.74 41.1171 2.5
      vertex -198.481 41.1171 1
      vertex -211.74 41.1171 1
    endloop
  endfacet
  facet normal 1 -0 0
    outer loop
      vertex -198.481 55.1161 2.5
      vertex -198.481 57.6415 1
      vertex -198.481 57.6415 2.5
    endloop
  endfacet
  facet normal 1 0 0
    outer loop
      vertex -198.481 57.6415 1
      vertex -198.481 55.1161 2.5
      vertex -198.481 55.1161 1
    endloop
  endfacet
  facet normal 1 -0 0
    outer loop
      vertex -198.481 -61.7837 2.5
      vertex -198.481 -59.2583 1
      vertex -198.481 -59.2583 2.5
    endloop
  endfacet
  facet normal 1 0 0
    outer loop
      vertex -198.481 -59.2583 1
      vertex -198.481 -61.7837 2.5
      vertex -198.481 -61.7837 1
    endloop
  endfacet
  facet normal 1 -0 0
    outer loop
      vertex -198.481 30.9419 2.5
      vertex -198.481 41.1171 1
      vertex -198.481 41.1171 2.5
    endloop
  endfacet
  facet normal 1 0 0
    outer loop
      vertex -198.481 41.1171 1
      vertex -198.481 30.9419 2.5
      vertex -198.481 30.9419 1
    endloop
  endfacet
  facet normal 1 -0 0
    outer loop
      vertex -198.481 11.8911 2.5
      vertex -198.481 16.9419 1
      vertex -198.481 16.9419 2.5
    endloop
  endfacet
  facet normal 1 0 0
    outer loop
      vertex -198.481 16.9419 1
      vertex -198.481 11.8911 2.5
      vertex -198.481 11.8911 1
    endloop
  endfacet
  facet normal 1 -0 0
    outer loop
      vertex -198.481 -26.2085 2.5
      vertex -198.481 -21.1577 1
      vertex -198.481 -21.1577 2.5
    endloop
  endfacet
  facet normal 1 0 0
    outer loop
      vertex -198.481 -21.1577 1
      vertex -198.481 -26.2085 2.5
      vertex -198.481 -26.2085 1
    endloop
  endfacet
  facet normal 1 -0 0
    outer loop
      vertex -198.481 -45.2583 2.5
      vertex -198.481 -40.2075 1
      vertex -198.481 -40.2075 2.5
    endloop
  endfacet
  facet normal 1 0 0
    outer loop
      vertex -198.481 -40.2075 1
      vertex -198.481 -45.2583 2.5
      vertex -198.481 -45.2583 1
    endloop
  endfacet
  facet normal 1 -0 0
    outer loop
      vertex -198.481 -7.15869 2.5
      vertex -198.481 -2.10791 1
      vertex -198.481 -2.10791 2.5
    endloop
  endfacet
  facet normal 1 0 0
    outer loop
      vertex -198.481 -2.10791 1
      vertex -198.481 -7.15869 2.5
      vertex -198.481 -7.15869 1
    endloop
  endfacet
endsolid OpenSCAD_Model
